<svg xmlns="http://www.w3.org/2000/svg" xmlns:xlink="http://www.w3.org/1999/xlink" preserveAspectRatio="xMidYMid" width="508.933" height="99.911" viewBox="0 0 2659 522">
  <defs>
    <style>
      .company-slogan {
        fill: #000;
        fill-opacity: 1;       }

      .symbol {
        fill-rule: evenodd;
      }

      .symbol, .company-name {
        fill: #ef9013;
      }
    </style>
  </defs>
  <g xmlns="http://www.w3.org/2000/svg">
<g class="symbol">
	<g>
		<path class="st1" d="M255.4,81.4c6.7,0,8.2,1.4,8.2,3.4c0,1.9-1,2.9-5.3,3.4c-9.2,1-17.8,2.9-24.6,5.8    c-12,4.8-21.2,10.6-50.1,38.5c-42.4,40.9-97.3,95.4-109.8,109.3c30.3,33.2,118,122.3,140.6,143.5c39.5,37.1,56.3,47.7,79.5,52    c4.3,1,9.2,1.4,14,1.4c3.9,0,6.7,1,6.7,3.4s-1.9,3.4-7.2,3.4h-35.6c-41.9,0-53-5.3-75.6-23.1c-28.9-22.6-115.6-115.6-158-166.1    l-2.1-2.4l2.1-2c14.9-14.4,80.4-83.3,109.8-113.7c28.9-29.9,30.8-34.7,30.8-40.5c0-3.9-2.4-7.7-6.3-9.2c-3.4-1.4-4.3-2.4-4.3-4.3    c0-1.9,2.9-2.9,7.2-2.9c14,0,12.5,1.4,28.9,1.4C219.3,82.9,247.7,81.4,255.4,81.4 M255.4,74.4c-3.3,0-10.3,0.3-18.3,0.6    c-10.8,0.4-24.2,0.9-32.8,0.9c-8.1,0-11.6-0.4-15-0.7c-3.3-0.4-6.8-0.7-13.9-0.7c-13.2,0-14.2,7.6-14.2,9.9c0,7.1,6,9.7,8.6,10.8    l0.1,0.1l0.1,0.1c1.1,0.4,1.7,1.6,1.7,2.6c0,3.3-2.1,8-28.9,35.6c-9.9,10.3-24,24.9-38.9,40.4c-28.5,29.8-60.9,63.5-70.7,73    l-2.1,1.9l-5,4.7l4.5,5.1l2,2.3c41.1,49,128.6,143.3,158.9,167.1c24.6,19.4,37.3,24.6,79.9,24.6H307c3.8,0,6.5-0.4,8.6-1.5    c3.6-1.7,5.6-4.9,5.6-8.9c0-1.7-0.7-10.4-13.7-10.4c-4.4,0-8.7-0.4-12.4-1.3H295h-0.1c-22-4.1-38.4-14.9-76-50.2    c-21.3-20.5-102.3-102.7-135.5-138.6c17.9-18.9,67.4-67.8,105.1-104.3c28.5-27.6,36.8-32.7,47.8-37.1h0.1h0.1    c5.8-2.5,13.6-4.3,22.5-5.2c3.5-0.4,5.7-1.1,7.5-2.4c1.5-1,4-3.5,4-8c0-3.8-2-6.9-5.4-8.7C262.8,75,259.8,74.4,255.4,74.4    L255.4,74.4z"/>
	</g>
	<g>
		<path class="st1" d="M425.5,83.3c18.4,0,44.1,1.4,66.6,5.5c17.5,3.2,31.7,4.6,48.7,6.9c3.2,0.5,4.1,2.3,4.1,5.1    c0,3.7-1.4,9.2-2.3,25.7c-0.9,15.2-0.9,40.4-1.4,47.3s-1.4,9.7-4.1,9.7c-3.2,0-3.7-3.2-3.7-9.7c0-17.9-7.4-36.8-19.3-46.9    c-16.1-13.8-51.5-26.2-91.9-26.2c-61.1,0-89.6,17.9-105.7,33.6c-33.5,32.2-41.4,73.1-41.4,119.9c0,87.8,67.6,168.2,165.9,168.2    c34.5,0,61.6-4.1,80-23c9.7-10.1,15.6-30.3,17-38.6c0.9-5.1,1.8-6.9,4.6-6.9c2.3,0,3.2,3.2,3.2,6.9c0,3.2-5.5,43.2-10.1,58.8    c-2.8,8.7-3.7,9.6-11.9,13.3c-18.4,7.4-53.3,10.6-82.7,10.6c-68.9,0-115.4-17-151.7-49.6c-44.6-40-55.6-92.4-55.6-136    c0-30.8,10.6-84.6,51.5-125.5C313,104.9,354.8,83.3,425.5,83.3 M425.5,76.3c-63.2,0-110.6,16.8-145.1,51.2    c-19.1,19.1-33.4,42.3-42.7,69.2c-9.4,27.1-10.8,50-10.8,61.2c0,26,3.9,50.2,11.5,71.7c9.6,27.1,25.2,50.5,46.4,69.5    c19.5,17.5,41.1,30.1,66,38.5c25.9,8.7,55.4,12.9,90.3,12.9c27.9,0,64.9-2.9,85.3-11.1h0.1l0.1-0.1c10.2-4.5,12.4-7,15.8-17.6    v-0.1v-0.1c4.7-15.9,10.4-56.3,10.4-60.8c0-10.3-5.5-13.9-10.2-13.9c-9.2,0-10.8,8.9-11.5,12.6v0.1v0.1c-1.2,7.2-6.7,26-15.1,34.9    c-17.9,18.3-46.6,20.8-74.9,20.8c-99.5,0-158.9-82-158.9-161.2c0-38.2,4.7-81.8,39.2-114.9c21.9-21.3,54.9-31.6,100.9-31.6    c40.4,0,73.6,12.7,87.4,24.5c10.1,8.5,16.9,25.2,16.9,41.6c0,3.9,0.2,6.9,1,9.4c1.5,4.6,5.1,7.3,9.7,7.3c4.3,0,7.7-2.4,9.4-6.6    c0.9-2.2,1.4-5,1.7-9.6c0.2-3.1,0.3-9,0.4-16.6c0.2-9.9,0.4-22.2,0.9-30.8c0.6-9.9,1.3-15.8,1.7-19.6c0.3-2.7,0.6-4.7,0.6-6.5    c0-6.6-3.8-11.1-10.1-12l0,0l0,0c-4.9-0.7-9.5-1.2-14.1-1.8c-11.3-1.4-22-2.8-34.3-5C465.8,76.9,436.7,76.3,425.5,76.3L425.5,76.3    z"/>
	</g>
	<g>
		<path class="st1" d="M573.8,7v507H7V7L573.8,7 M580.8,0h-7H7H0v7v507v7h7h566.8h7v-7V7V0L580.8,0z"/>
	</g>
</g>
    <g class="text">
      <path d="M2170.445,425.509 L2170.445,396.661 L2143.849,396.661 L2125.648,425.509 L2121.349,425.509 L2139.685,396.347 C2134.446,395.539 2130.304,393.367 2127.260,389.833 C2124.214,386.299 2122.693,381.848 2122.693,376.483 C2122.693,370.479 2124.830,365.646 2129.107,361.984 C2133.382,358.322 2139.192,356.427 2146.535,356.299 L2174.072,356.299 L2174.072,425.509 L2170.445,425.509 ZM2170.445,359.753 L2147.207,359.753 C2140.669,359.753 2135.554,361.249 2131.860,364.240 C2128.166,367.230 2126.319,371.353 2126.319,376.608 C2126.319,381.607 2127.898,385.603 2131.054,388.593 C2134.211,391.584 2138.476,393.122 2143.849,393.207 L2170.445,393.207 L2170.445,359.753 ZM2097.523,362.440 L2052.590,425.509 L2048.964,425.509 L2048.964,356.299 L2052.590,356.299 L2052.590,419.368 L2097.523,356.299 L2101.216,356.299 L2101.216,425.509 L2097.523,425.509 L2097.523,362.440 ZM2022.920,391.672 L1977.988,391.672 L1977.988,425.509 L1974.362,425.509 L1974.362,356.299 L1977.988,356.299 L1977.988,388.218 L2022.920,388.218 L2022.920,356.299 L2026.614,356.299 L2026.614,425.509 L2022.920,425.509 L2022.920,391.672 ZM1948.050,412.844 C1945.184,417.280 1941.266,420.712 1936.296,423.142 C1931.326,425.573 1925.706,426.788 1919.438,426.788 C1912.722,426.788 1907.315,425.051 1903.218,421.575 C1899.121,418.100 1897.073,413.570 1897.073,407.983 C1897.073,401.629 1900.084,396.544 1906.106,392.727 C1912.128,388.911 1920.132,386.960 1930.117,386.874 L1948.050,386.874 L1948.050,376.768 C1948.050,370.969 1946.136,366.469 1942.307,363.271 C1938.479,360.073 1933.005,358.474 1925.886,358.474 C1919.259,358.474 1913.729,360.095 1909.297,363.335 C1904.864,366.576 1902.648,370.585 1902.648,375.361 L1899.021,375.233 C1899.021,369.604 1901.617,364.828 1906.812,360.905 C1912.005,356.982 1918.364,355.020 1925.886,355.020 C1933.721,355.020 1939.945,356.886 1944.557,360.617 C1949.168,364.349 1951.542,369.604 1951.677,376.384 L1951.677,409.454 C1951.677,417.045 1952.303,422.205 1953.557,424.933 L1953.557,425.509 L1949.393,425.509 C1948.497,422.567 1948.050,418.345 1948.050,412.844 ZM1948.050,390.328 L1931.259,390.328 C1920.871,390.328 1912.924,392.290 1907.416,396.213 C1902.938,399.411 1900.700,403.399 1900.700,408.175 C1900.700,412.396 1902.468,415.978 1906.006,418.921 C1909.542,421.863 1914.020,423.334 1919.438,423.334 C1926.244,423.334 1932.099,421.885 1937.001,418.985 C1941.904,416.085 1945.587,412.012 1948.050,406.767 L1948.050,390.328 ZM1876.403,359.753 L1831.471,359.753 L1831.471,425.509 L1827.844,425.509 L1827.844,356.299 L1880.097,356.299 L1880.097,425.509 L1876.403,425.509 L1876.403,359.753 ZM1801.734,362.951 L1769.428,425.509 L1766.607,425.509 L1733.630,361.416 L1733.630,425.509 L1730.003,425.509 L1730.003,356.299 L1734.974,356.299 L1768.018,420.264 L1801.062,356.299 L1805.428,356.299 L1805.428,425.509 L1801.734,425.509 L1801.734,362.951 ZM1697.278,422.375 C1692.419,425.317 1686.923,426.788 1680.789,426.788 C1674.654,426.788 1669.158,425.339 1664.301,422.439 C1659.442,419.539 1655.670,415.478 1652.984,410.253 C1650.297,405.030 1648.931,399.156 1648.887,392.631 L1648.887,389.561 C1648.887,382.951 1650.218,377.014 1652.883,371.747 C1655.546,366.480 1659.307,362.376 1664.166,359.433 C1669.024,356.491 1674.520,355.020 1680.655,355.020 C1686.744,355.020 1692.207,356.449 1697.043,359.305 C1701.878,362.163 1705.650,366.214 1708.360,371.459 C1711.068,376.704 1712.445,382.611 1712.490,389.177 L1712.490,392.247 C1712.490,398.900 1711.169,404.848 1708.527,410.094 C1705.885,415.339 1702.135,419.432 1697.278,422.375 ZM1708.863,389.561 C1708.863,383.890 1707.654,378.645 1705.236,373.825 C1702.819,369.007 1699.471,365.244 1695.196,362.536 C1690.919,359.828 1686.072,358.474 1680.655,358.474 C1672.371,358.474 1665.610,361.480 1660.372,367.493 C1655.133,373.506 1652.513,381.075 1652.513,390.200 L1652.513,392.247 C1652.513,398.004 1653.711,403.281 1656.107,408.079 C1658.501,412.876 1661.838,416.618 1666.114,419.304 C1670.389,421.991 1675.282,423.334 1680.789,423.334 C1689.072,423.334 1695.822,420.371 1701.039,414.443 C1706.254,408.516 1708.863,400.883 1708.863,391.544 L1708.863,389.561 ZM1638.694,425.509 L1605.180,391.736 L1591.881,391.736 L1591.881,425.509 L1588.187,425.509 L1588.187,356.299 L1591.881,356.299 L1591.881,388.281 L1605.851,388.281 L1634.664,356.299 L1639.903,356.299 L1609.008,390.236 L1644.134,425.509 L1638.694,425.509 ZM1529.653,396.661 L1503.057,396.661 L1484.856,425.509 L1480.557,425.509 L1498.893,396.347 C1493.654,395.539 1489.512,393.367 1486.468,389.833 C1483.422,386.299 1481.901,381.848 1481.901,376.483 C1481.901,370.479 1484.038,365.646 1488.315,361.984 C1492.590,358.322 1498.400,356.427 1505.743,356.299 L1533.280,356.299 L1533.280,425.509 L1529.653,425.509 L1529.653,396.661 ZM1529.653,359.753 L1506.415,359.753 C1499.877,359.753 1494.762,361.249 1491.068,364.240 C1487.374,367.230 1485.527,371.353 1485.527,376.608 C1485.527,381.607 1487.106,385.603 1490.262,388.593 C1493.419,391.584 1497.684,393.122 1503.057,393.207 L1529.653,393.207 L1529.653,359.753 ZM1456.462,412.844 C1453.596,417.280 1449.678,420.712 1444.708,423.142 C1439.738,425.573 1434.119,426.788 1427.850,426.788 C1421.134,426.788 1415.727,425.051 1411.630,421.575 C1407.533,418.100 1405.485,413.570 1405.485,407.983 C1405.485,401.629 1408.496,396.544 1414.518,392.727 C1420.540,388.911 1428.544,386.960 1438.529,386.874 L1456.462,386.874 L1456.462,376.768 C1456.462,370.969 1454.548,366.469 1450.719,363.271 C1446.891,360.073 1441.417,358.474 1434.298,358.474 C1427.671,358.474 1422.141,360.095 1417.709,363.335 C1413.276,366.576 1411.060,370.585 1411.060,375.361 L1407.433,375.233 C1407.433,369.604 1410.029,364.828 1415.224,360.905 C1420.417,356.982 1426.776,355.020 1434.298,355.020 C1442.133,355.020 1448.357,356.886 1452.969,360.617 C1457.580,364.349 1459.954,369.604 1460.089,376.384 L1460.089,409.454 C1460.089,417.045 1460.715,422.205 1461.969,424.933 L1461.969,425.509 L1457.805,425.509 C1456.909,422.567 1456.462,418.345 1456.462,412.844 ZM1456.462,390.328 L1439.671,390.328 C1429.283,390.328 1421.335,392.290 1415.828,396.213 C1411.350,399.411 1409.112,403.399 1409.112,408.175 C1409.112,412.396 1410.880,415.978 1414.418,418.921 C1417.954,421.863 1422.432,423.334 1427.850,423.334 C1434.656,423.334 1440.511,421.885 1445.414,418.985 C1450.316,416.085 1453.999,412.012 1456.462,406.767 L1456.462,390.328 ZM1384.815,391.672 L1339.883,391.672 L1339.883,425.509 L1336.256,425.509 L1336.256,356.299 L1339.883,356.299 L1339.883,388.218 L1384.815,388.218 L1384.815,356.299 L1388.509,356.299 L1388.509,425.509 L1384.815,425.509 L1384.815,391.672 ZM1292.482,425.509 L1265.012,425.509 L1265.012,356.299 L1268.639,356.299 L1268.639,382.653 L1292.482,382.653 C1300.228,382.781 1306.385,384.774 1310.952,388.633 C1315.519,392.493 1317.802,397.642 1317.802,404.081 C1317.802,410.477 1315.541,415.616 1311.019,419.496 C1306.496,423.377 1300.317,425.381 1292.482,425.509 ZM1308.366,391.128 C1304.492,387.866 1299.153,386.193 1292.347,386.107 L1268.639,386.107 L1268.639,422.055 L1291.810,422.055 C1298.795,422.055 1304.269,420.424 1308.232,417.162 C1312.194,413.899 1314.175,409.497 1314.175,403.953 C1314.175,398.666 1312.238,394.390 1308.366,391.128 ZM1238.297,359.753 L1203.507,359.753 L1202.096,392.151 C1201.380,404.488 1199.645,413.110 1196.891,418.018 C1194.138,422.927 1189.738,425.424 1183.694,425.509 L1181.141,425.509 L1181.141,422.055 L1184.164,422.055 C1188.731,421.885 1192.078,419.605 1194.205,415.218 C1196.331,410.830 1197.731,403.502 1198.402,393.235 L1200.014,356.299 L1241.991,356.299 L1241.991,425.509 L1238.297,425.509 L1238.297,359.753 ZM1119.032,392.368 C1119.032,397.987 1120.274,403.191 1122.759,407.980 C1125.244,412.768 1128.670,416.524 1133.035,419.248 C1137.401,421.973 1142.136,423.334 1147.240,423.334 C1152.120,423.334 1156.274,422.562 1159.699,421.016 C1163.124,419.469 1166.157,417.087 1168.800,413.867 L1171.352,415.594 C1165.934,423.057 1157.896,426.788 1147.240,426.788 C1141.374,426.788 1135.990,425.285 1131.088,422.279 C1126.185,419.272 1122.345,415.147 1119.569,409.902 C1116.792,404.656 1115.405,398.836 1115.405,392.439 L1115.405,389.561 C1115.405,383.164 1116.748,377.302 1119.435,371.970 C1122.121,366.640 1125.815,362.483 1130.517,359.497 C1135.218,356.513 1140.344,355.020 1145.897,355.020 C1154.001,355.020 1160.628,357.770 1165.777,363.271 C1170.926,368.772 1173.501,376.000 1173.501,384.955 L1173.501,388.601 L1119.032,388.601 L1119.032,392.368 ZM1169.874,385.147 L1169.874,384.316 C1169.874,379.625 1168.833,375.265 1166.751,371.235 C1164.669,367.205 1161.803,364.071 1158.154,361.832 C1154.504,359.593 1150.419,358.474 1145.897,358.474 C1138.822,358.474 1132.822,360.979 1127.897,365.990 C1122.971,371.001 1120.083,377.386 1119.233,385.147 L1169.874,385.147 ZM1084.392,425.509 L1080.765,425.509 L1080.765,359.753 L1053.698,359.753 L1053.698,356.299 L1112.936,356.299 L1112.936,359.753 L1084.392,359.753 L1084.392,425.509 ZM1036.521,362.440 L991.588,425.509 L987.962,425.509 L987.962,356.299 L991.588,356.299 L991.588,419.368 L1036.521,356.299 L1040.215,356.299 L1040.215,425.509 L1036.521,425.509 L1036.521,362.440 ZM955.840,422.375 C950.981,425.317 945.486,426.788 939.352,426.788 C933.217,426.788 927.721,425.339 922.863,422.439 C918.004,419.539 914.233,415.478 911.546,410.253 C908.860,405.030 907.493,399.156 907.449,392.631 L907.449,389.561 C907.449,382.951 908.781,377.014 911.445,371.747 C914.109,366.480 917.870,362.376 922.729,359.433 C927.587,356.491 933.082,355.020 939.217,355.020 C945.306,355.020 950.769,356.449 955.605,359.305 C960.441,362.163 964.213,366.214 966.922,371.459 C969.631,376.704 971.008,382.611 971.053,389.177 L971.053,392.247 C971.053,398.900 969.731,404.848 967.090,410.094 C964.448,415.339 960.698,419.432 955.840,422.375 ZM967.426,389.561 C967.426,383.890 966.217,378.645 963.799,373.825 C961.381,369.007 958.034,365.244 953.758,362.536 C949.482,359.828 944.635,358.474 939.217,358.474 C930.933,358.474 924.173,361.480 918.934,367.493 C913.695,373.506 911.076,381.075 911.076,390.200 L911.076,392.247 C911.076,398.004 912.273,403.281 914.669,408.079 C917.064,412.876 920.400,416.618 924.677,419.304 C928.952,421.991 933.844,423.334 939.352,423.334 C947.635,423.334 954.385,420.371 959.601,414.443 C964.817,408.516 967.426,400.883 967.426,391.544 L967.426,389.561 ZM866.630,426.788 C861.123,426.788 856.220,425.722 851.922,423.590 C847.623,421.458 844.265,418.516 841.847,414.763 L841.847,452.118 L838.220,452.118 L838.220,356.299 L841.847,356.299 L841.847,368.644 C844.354,364.253 847.734,360.884 851.989,358.538 C856.242,356.193 861.078,355.020 866.496,355.020 C875.003,355.020 881.697,358.122 886.578,364.327 C891.458,370.531 893.898,379.241 893.898,390.456 L893.898,391.544 C893.898,402.333 891.458,410.904 886.578,417.258 C881.697,423.612 875.048,426.788 866.630,426.788 ZM883.992,366.885 C879.850,361.278 874.040,358.474 866.563,358.474 C860.473,358.474 855.302,359.977 851.048,362.983 C846.794,365.990 843.728,370.307 841.847,375.936 L841.847,408.302 C843.728,413.079 846.806,416.778 851.082,419.400 C855.357,422.023 860.562,423.334 866.697,423.334 C874.129,423.334 879.905,420.520 884.025,414.891 C888.144,409.262 890.204,401.032 890.204,390.200 C890.204,380.265 888.133,372.493 883.992,366.885 ZM796.259,425.509 L792.633,425.509 L792.633,359.753 L765.566,359.753 L765.566,356.299 L824.804,356.299 L824.804,359.753 L796.259,359.753 L796.259,425.509 ZM710.878,415.051 C715.512,420.574 721.881,423.334 729.986,423.334 C736.568,423.334 741.996,421.671 746.273,418.345 C750.548,415.019 752.888,410.413 753.291,404.529 L756.918,404.529 C756.559,411.224 753.851,416.608 748.791,420.680 C743.731,424.752 737.463,426.788 729.986,426.788 C720.896,426.788 713.675,423.654 708.326,417.385 C702.975,411.117 700.300,402.610 700.300,391.864 L700.300,389.561 C700.300,379.071 702.975,370.691 708.326,364.423 C713.675,358.154 720.851,355.020 729.851,355.020 C737.552,355.020 743.910,357.217 748.926,361.608 C753.940,366.001 756.604,371.843 756.918,379.135 L753.291,379.135 C752.977,372.909 750.682,367.909 746.407,364.135 C742.131,360.361 736.612,358.474 729.851,358.474 C721.747,358.474 715.400,361.256 710.811,366.821 C706.220,372.386 703.926,380.116 703.926,390.009 L703.926,392.247 C703.926,401.928 706.243,409.529 710.878,415.051 Z" class="company-slogan"/>
      <path d="M2579.528,260.509 L2579.528,120.646 L2478.444,260.509 L2472.643,260.509 L2472.643,111.212 L2478.444,111.212 L2478.444,250.768 L2579.528,111.212 L2585.328,111.212 L2585.328,260.509 L2579.528,260.509 ZM2530.114,100.343 C2520.946,100.343 2513.660,98.020 2508.253,93.370 C2502.845,88.722 2500.143,82.570 2500.143,74.913 L2505.944,74.913 C2505.944,81.200 2507.985,86.087 2512.067,89.575 C2516.149,93.063 2522.164,94.806 2530.114,94.806 C2537.776,94.806 2543.702,93.028 2547.892,89.471 C2552.081,85.914 2554.176,81.061 2554.176,74.913 L2559.977,74.913 C2559.977,82.570 2557.273,88.722 2551.867,93.370 C2546.459,98.020 2539.208,100.343 2530.114,100.343 ZM2410.042,254.408 C2401.089,259.843 2390.776,262.560 2379.104,262.560 C2361.487,262.560 2347.235,256.579 2336.350,244.615 C2325.464,232.654 2320.022,216.520 2320.022,196.217 L2320.022,174.684 C2320.022,161.833 2322.439,150.417 2327.273,140.436 C2332.107,130.456 2339.017,122.748 2348.006,117.313 C2356.992,111.879 2367.288,109.161 2378.889,109.161 C2390.561,109.161 2400.892,111.879 2409.881,117.313 C2418.867,122.748 2425.796,130.473 2430.667,140.487 C2435.536,150.502 2437.971,161.902 2437.971,174.684 L2437.971,197.037 C2437.971,209.957 2435.554,221.390 2430.720,231.337 C2425.886,241.283 2418.993,248.973 2410.042,254.408 ZM2432.171,174.479 C2432.171,156.432 2427.372,141.958 2417.776,131.053 C2408.179,120.151 2395.217,114.699 2378.889,114.699 C2362.776,114.699 2349.921,120.117 2340.325,130.951 C2330.727,141.786 2325.930,156.534 2325.930,175.197 L2325.930,197.037 C2325.930,208.932 2328.096,219.442 2332.429,228.568 C2336.762,237.694 2342.938,244.718 2350.960,249.640 C2358.979,254.562 2368.362,257.023 2379.104,257.023 C2395.432,257.023 2408.358,251.588 2417.883,240.719 C2427.407,229.850 2432.171,215.017 2432.171,196.217 L2432.171,174.479 ZM2245.819,197.448 L2201.991,197.448 L2201.991,260.509 L2196.190,260.509 L2196.190,111.212 L2245.067,111.212 C2261.036,111.212 2273.444,115.057 2282.289,122.748 C2291.133,130.438 2295.556,141.120 2295.556,154.791 C2295.556,168.326 2291.240,178.785 2282.611,186.168 C2273.981,193.551 2261.718,197.311 2245.819,197.448 ZM2277.992,126.849 C2270.150,120.117 2259.175,116.749 2245.067,116.749 L2201.991,116.749 L2201.991,191.910 L2245.067,191.910 C2259.175,191.910 2270.150,188.664 2277.992,182.169 C2285.834,175.676 2289.755,166.619 2289.755,154.996 C2289.755,142.966 2285.834,133.583 2277.992,126.849 ZM2112.964,260.509 L2107.164,260.509 L2107.164,116.749 L2050.230,116.749 L2050.230,111.212 L2169.898,111.212 L2169.898,116.749 L2112.964,116.749 L2112.964,260.509 ZM1933.488,228.261 C1937.641,237.319 1943.603,244.377 1951.374,249.435 C1959.144,254.494 1968.041,257.023 1978.068,257.023 C1993.035,257.023 2004.726,253.503 2013.142,246.461 C2021.556,239.421 2026.516,228.860 2028.019,214.777 L2033.820,214.777 C2032.316,230.157 2026.766,241.967 2017.170,250.204 C2007.572,258.442 1994.539,262.560 1978.068,262.560 C1966.967,262.560 1957.138,259.878 1948.581,254.510 C1940.023,249.145 1933.381,241.523 1928.654,231.644 C1923.928,221.767 1921.528,210.470 1921.457,197.755 L1921.457,174.684 C1921.457,161.969 1923.783,150.605 1928.439,140.590 C1933.094,130.576 1939.736,122.834 1948.366,117.365 C1956.995,111.896 1966.896,109.161 1978.068,109.161 C1994.396,109.161 2007.394,113.263 2017.062,121.466 C2026.730,129.669 2032.316,141.428 2033.820,156.740 L2028.019,156.740 C2026.371,142.999 2021.359,132.558 2012.980,125.414 C2004.601,118.271 1992.963,114.699 1978.068,114.699 C1962.885,114.699 1950.622,120.168 1941.276,131.105 C1931.931,142.043 1927.258,156.706 1927.258,175.094 L1927.258,197.037 C1927.258,208.796 1929.334,219.203 1933.488,228.261 ZM1740.503,228.261 C1744.655,237.319 1750.617,244.377 1758.388,249.435 C1766.158,254.494 1775.056,257.023 1785.083,257.023 C1800.050,257.023 1811.740,253.503 1820.156,246.461 C1828.570,239.421 1833.530,228.860 1835.034,214.777 L1840.835,214.777 C1839.331,230.157 1833.780,241.967 1824.184,250.204 C1814.587,258.442 1801.554,262.560 1785.083,262.560 C1773.981,262.560 1764.152,259.878 1755.595,254.510 C1747.037,249.145 1740.395,241.523 1735.669,231.644 C1730.942,221.767 1728.542,210.470 1728.471,197.755 L1728.471,174.684 C1728.471,161.969 1730.798,150.605 1735.454,140.590 C1740.108,130.576 1746.750,122.834 1755.381,117.365 C1764.010,111.896 1773.911,109.161 1785.083,109.161 C1801.411,109.161 1814.409,113.263 1824.077,121.466 C1833.745,129.669 1839.331,141.428 1840.835,156.740 L1835.034,156.740 C1833.386,142.999 1828.374,132.558 1819.995,125.414 C1811.616,118.271 1799.977,114.699 1785.083,114.699 C1769.899,114.699 1757.636,120.168 1748.291,131.105 C1738.945,142.043 1734.272,156.706 1734.272,175.094 L1734.272,197.037 C1734.272,208.796 1736.348,219.203 1740.503,228.261 ZM1701.964,260.509 L1629.025,187.706 L1605.069,187.706 L1605.069,260.509 L1599.269,260.509 L1599.269,111.212 L1605.069,111.212 L1605.069,182.169 L1630.636,182.169 L1697.023,111.212 L1704.649,111.212 L1635.470,185.721 L1709.591,260.509 L1701.964,260.509 ZM1475.115,111.212 L1570.291,111.212 L1570.291,116.749 L1480.916,116.749 L1480.916,180.939 L1559.334,180.939 L1559.334,186.476 L1480.916,186.476 L1480.916,254.972 L1570.291,254.972 L1570.291,260.509 L1475.115,260.509 L1475.115,111.212 ZM1427.982,116.749 L1351.820,116.749 L1347.094,185.245 C1345.375,207.599 1343.154,223.595 1340.434,233.234 C1337.711,242.872 1333.970,249.778 1329.208,253.947 C1324.444,258.117 1317.945,260.304 1309.711,260.509 L1304.984,260.509 L1304.984,254.972 L1310.141,254.972 C1317.301,254.767 1322.798,252.598 1326.630,248.461 C1330.460,244.325 1333.522,237.353 1335.814,227.543 C1338.106,217.734 1339.967,203.190 1341.400,183.912 L1346.449,111.212 L1433.783,111.212 L1433.783,260.509 L1427.982,260.509 L1427.982,116.749 ZM1275.147,116.749 L1175.244,116.749 L1175.244,260.509 L1169.444,260.509 L1169.444,111.212 L1280.948,111.212 L1280.948,260.509 L1275.147,260.509 L1275.147,116.749 ZM1121.774,119.415 L1056.891,260.509 L1052.272,260.509 L987.712,120.133 L987.712,260.509 L981.911,260.509 L981.911,111.212 L990.182,111.212 L1054.528,252.408 L1119.089,111.212 L1127.575,111.212 L1127.575,260.509 L1121.774,260.509 L1121.774,119.415 ZM919.310,254.408 C910.357,259.843 900.044,262.560 888.372,262.560 C870.755,262.560 856.503,256.579 845.618,244.615 C834.732,232.654 829.290,216.520 829.290,196.217 L829.290,174.684 C829.290,161.833 831.707,150.417 836.541,140.436 C841.375,130.456 848.285,122.748 857.274,117.313 C866.260,111.879 876.556,109.161 888.157,109.161 C899.829,109.161 910.160,111.879 919.149,117.313 C928.135,122.748 935.064,130.473 939.935,140.487 C944.804,150.502 947.239,161.902 947.239,174.684 L947.239,197.037 C947.239,209.957 944.822,221.390 939.988,231.337 C935.154,241.283 928.261,248.973 919.310,254.408 ZM941.439,174.479 C941.439,156.432 936.640,141.958 927.044,131.053 C917.447,120.151 904.485,114.699 888.157,114.699 C872.044,114.699 859.189,120.117 849.593,130.951 C839.995,141.786 835.198,156.534 835.198,175.197 L835.198,197.037 C835.198,208.932 837.364,219.442 841.697,228.568 C846.030,237.694 852.206,244.718 860.228,249.640 C868.247,254.562 877.630,257.023 888.372,257.023 C904.700,257.023 917.626,251.588 927.152,240.719 C936.675,229.850 941.439,215.017 941.439,196.217 L941.439,174.479 ZM803.964,260.509 L731.025,187.706 L707.070,187.706 L707.070,260.509 L701.269,260.509 L701.269,111.212 L707.070,111.212 L707.070,182.169 L732.636,182.169 L799.023,111.212 L806.650,111.212 L737.470,185.721 L811.591,260.509 L803.964,260.509 Z" class="company-name"/>
    </g>

  </g>
</svg>
